<svg id="Слой_1" data-name="Слой 1" xmlns="http://www.w3.org/2000/svg" viewBox="0 0 887.98 178.01">
  <defs>
    <style>
      .cls-1 {
        fill: #fff;
        stroke: #fff;
        stroke-miterlimit: 10;
      }
    </style>
  </defs>
  <title>logo digital production white</title>
  <g>
    <path class="cls-1" d="M313.15,53.59L295,110.43H279.91l-10.36-33-10.87,32.94h-15l-17-56.82h15.45L252,90.32l12-36.73h11.74L287,90.32l10.79-36.73h15.41Z" transform="translate(0.59 0.48)"/>
    <path class="cls-1" d="M351.46,110.41H319.1V53.59h32.36v12.3H333.85v9.7h16.62V87.92H333.85V98.08h17.57v12.33h0Z" transform="translate(0.59 0.48)"/>
    <path class="cls-1" d="M404.1,94.25a14.85,14.85,0,0,1-3.63,10.34q-5.25,5.79-16,5.79H360.85V53.59h22q16,0,16,14.83a14.59,14.59,0,0,1-1.75,7.45,12.09,12.09,0,0,1-4.5,4.33q6.77,1.39,9.25,5.39A16.33,16.33,0,0,1,404.1,94.25Zm-19-23.9a5,5,0,0,0-3.48-5.12,10.75,10.75,0,0,0-3.32-.42h-2.7V75.93h2.7q3.81,0,5.47-1.87a5.39,5.39,0,0,0,1.34-3.71h0Zm4.21,22.9q0-5-5.11-5.83a42,42,0,0,0-5.56-.25h-3v12h3.21q5.65,0,7.89-1.33A5,5,0,0,0,389.31,93.25Z" transform="translate(0.59 0.48)"/>
    <path class="cls-1" d="M454.48,109.08A36.61,36.61,0,0,1,441.07,112a29.8,29.8,0,1,1,.14-59.59,37,37,0,0,1,13.28,2.87v17.7a16.75,16.75,0,0,0-4.25-3.86,16.19,16.19,0,0,0-8.51-2.39,15.37,15.37,0,0,0-10,3.47q-5.38,4.38-5.38,12t5.38,12a15.36,15.36,0,0,0,10,3.47,16.19,16.19,0,0,0,8.51-2.39,16.6,16.6,0,0,0,4.25-3.86v17.7h0Z" transform="translate(0.59 0.48)"/>
    <path class="cls-1" d="M524.24,82.18a29.8,29.8,0,0,1-7.7,20.32q-8.79,10-23.78,10T469,102.5a29.8,29.8,0,0,1-7.7-20.32,30.81,30.81,0,0,1,2.08-10.85A30.17,30.17,0,0,1,469,61.81q8.79-10,23.78-10t23.78,10A29.86,29.86,0,0,1,524.24,82.18Zm-15.32,0a15.26,15.26,0,0,0-3.84-10.4,16.15,16.15,0,0,0-28.43,10.4,15.55,15.55,0,0,0,3.84,10.31,15.33,15.33,0,0,0,12.28,5.64,16,16,0,0,0,16.14-15.86V82.18h0Z" transform="translate(0.59 0.48)"/>
    <path class="cls-1" d="M590.37,110.41H575.58L548.39,75.59V110.4H533.61V53.59h14.78l27.19,34.77V53.59h14.78v56.82Z" transform="translate(0.59 0.48)"/>
    <path class="cls-1" d="M656,53.59l-24.24,56.84H620.23L596.32,53.59h16.07l13.7,34.56,13.83-34.56h16Z" transform="translate(0.59 0.48)"/>
    <path class="cls-1" d="M694.27,110.41H661.91V53.59h32.36v12.3H676.69v9.7h16.62V87.92H676.69V98.08h17.57v12.33h0Z" transform="translate(0.59 0.48)"/>
    <path class="cls-1" d="M750.9,110.41H732.54L718.42,88.59v21.82H703.64V53.59h23q10.08,0,14.91,6A17.74,17.74,0,0,1,745.47,71q0,7.54-4.5,12a15.74,15.74,0,0,1-7.91,4ZM730.12,71.87a6.73,6.73,0,0,0-2.21-5.11q-2.09-2-6.73-2h-2.76V78.92h2.76q4.68,0,6.73-2a6.86,6.86,0,0,0,2.21-5h0Z" transform="translate(0.59 0.48)"/>
    <path class="cls-1" d="M790.8,65.89H778.55v44.52H763.77V65.89h-12V53.59h39.06v12.3h0Z" transform="translate(0.59 0.48)"/>
    <path class="cls-1" d="M829.65,110.41H797.29V53.59h32.36v12.3H812.08v9.7H828.7V87.92H812.08V98.08h17.57v12.33Z" transform="translate(0.59 0.48)"/>
    <path class="cls-1" d="M886.29,110.41H867.92L853.85,88.59v21.82H839.07V53.59h23q10.08,0,14.91,6A17.74,17.74,0,0,1,880.9,71q0,7.54-4.5,12a15.74,15.74,0,0,1-7.91,4ZM865.51,71.87a6.73,6.73,0,0,0-2.21-5.11q-2.09-2-6.73-2h-2.72V78.92h2.76q4.68,0,6.73-2a6.86,6.86,0,0,0,2.17-5h0Z" transform="translate(0.59 0.48)"/>
  </g>
  <g>
    <path class="cls-1" d="M174.56,9.92h0Z" transform="translate(0.59 0.48)"/>
    <path class="cls-1" d="M152.28,27.59c0.17,0.91.17,0.56,0.73,1.29-1.08,1.64-5.3,5.3-6.94,6.94L101.13,80.93l-1.81,1.81c-0.56.35-1.46,1.29-2,1.64L42,29.26c0.56-.91.56-0.35,0.91-1.46C40,26,37.29,23.41,34.54,21.21c-0.91-.73-1.81-1.46-2.75-2.2-1.64-1.29-10-8.58-11.33-9,2.75,4,6,7.5,9,11.33L37.3,31a3,3,0,0,1,1.08,1.46,4.57,4.57,0,0,0,1.46-1.08L95.11,86.59c-1.46,2-50.94,50.94-56.06,56.06-4,4.18-2.2,2.93-8,4a25.78,25.78,0,0,1-3.66.56c1.08,1.46,2.75.56,4,.35s2.2-.35,3.28-0.56A6.65,6.65,0,0,1,33,148.64c-0.91.91-7.67,1.81-9,2,1.08,1.64,4.92-.17,7.29-0.35-1.46,2-2,2.2-4.57,2.55-2,.35-4.18.56-6,1.08,0.35,0.56.17,0.73,1.29,0.73,1.64,0,4-.91,5.86-1.08-1.29,2-2.2,2.2-4.39,2.55s-4.18.73-6,1.08c1.08,1.64,3.1-.17,7.11-0.17l-3.45,3.66,2.2,2.2,3.45-3.45c0,4-1.81,5.86-.17,7.11,0.17-1.29,1.29-7.84,1.81-8.58a7.37,7.37,0,0,1,1.81-1.64c-0.17,1.64-1.46,5.47-.73,6.76,0.73-.17.56,0.17,0.73-0.91,0.73-3.45.17-7.11,3.28-9.31-0.17,1.81-1.46,5.65-.73,6.94,0.73-.17.56,0,0.73-0.91a6,6,0,0,0,.17-1.64c0.17-1.08.35-2,.56-3.1,0.35-2.2.73-3.28,2.55-4.57,0,1.81-1.46,5.47-.73,6.94,1.08-.35.91-1.64,1.08-2.75,1.08-5.47,0-4.57,3.83-8.4,5.12-5.12,54.6-55.12,56.41-56.41,1.08,1.64,53.13,53.48,58.43,58.43,1.08,1.08.91,1.08,1.29,2.93l0.91,5.12c0.17,1.08,0,1.08.73,1.29,0.91-.91-0.56-5.47-0.73-6.94,3.1,2.2,2.55,5.86,3.28,9.31,0.35,1.08.17,0.73,0.91,1.08,0.56-1.46-.73-5.3-0.91-6.94,2,1.29,2.2,1.81,2.75,4.57l0.73,4.57c0.17,1.08,0,.73.73,1.08,0.91-1.08-.73-5.47-0.73-6.94,3.28,2.2,2.37,5.65,3.28,9.13,0.35,1.29,0,.91.73,1.08,0.73-1.29-.56-5.12-0.73-6.94l3.45,3.45,2.55-2.37-3.83-3.66c2,0,4,.91,5.86,1.08a1.23,1.23,0,0,0,1.46-.73,48.55,48.55,0,0,0-5.86-1.08c-2.75-.56-3.28-0.56-4.74-2.55l5.86,0.91c1.08,0.17.91,0,1.46-.73l-6-.91c-2.55-.56-3.28-0.73-4.57-2.55,1.29,0.17,2.37.35,3.66,0.56,1.81,0.35,2.75.91,3.45-.35-1.29,0-7.84-1.08-8.75-1.81a7.37,7.37,0,0,1-1.64-1.81,37.5,37.5,0,0,0,6.38,1.08c0.91,0,0,0,.73-0.17-0.17-.73.35-0.56-1.08-0.73l-5.3-.91c-3.1-.56-2.2-0.56-4.92-3.28L116,102.83l-4-4-4.18-4c-2-1.81-6.76-6.21-8-8.23l55.5-55.5c0.91,0.73.73,0.91,1.64,1.08,0.17-.73.35-0.56,0.91-1.29,3.66-4.57,8.75-11.12,12.41-15.34l4.39-5.65a14.37,14.37,0,0,0-2.75,2,19.35,19.35,0,0,0-2.93,2.37l-11.12,9a28.54,28.54,0,0,0-2.55,2.2A27.22,27.22,0,0,0,152.28,27.59Z" transform="translate(0.59 0.48)"/>
    <path class="cls-1" d="M20.46,9.92h0Z" transform="translate(0.59 0.48)"/>
    <path class="cls-1" d="M86.74,158.33c0-5.12,3.83-13.32,10-13.32,6.94,0,13.14,4.74,13.14,11,0,4.18-.17,6.59-3.66,9.69C100.61,170.91,86.74,169.45,86.74,158.33Zm27.75-8.23c0-1.29-.35-2.37.91-2.55A1.32,1.32,0,0,1,117,149C115.57,149.37,115.4,149,114.49,150.1Zm-27-14.22c0,3.1-1.08,6.21-4.74,6.21-4.18.17-7.29-.73-8.23,2.93-0.73,3.1-.17,7.29-0.35,10.77,0,1.81-.17,1.81-0.17,5.12,0,8.58-1.08,13.7,9.69,14l26.84-.35c5.12-.73,2.75.73,10.21-1.08,1.08-.35.91,0,1.29-1.08,1.29-3.83,1.46-11.68,1.46-16.07a37.4,37.4,0,0,0-.56-6.76c-0.17-2-.91-4.39-0.91-6.21-6.94-1.64-4.92-1.46-12.06-1.46,0-8.4-6.21-6.21-15.17-6.21-1.64,0-1.81.17-3.28,0.17a39,39,0,0,1-4,0h0Z" transform="translate(0.59 0.48)"/>
    <path class="cls-1" d="M150.64,69.22h35.42V92.79H150.64V69.22Zm-4.57.94V92.79h-5.65c0.35,3.66,0,1.08,0,3.28a8.94,8.94,0,0,0,2.2,1.46,12.16,12.16,0,0,0,2.75.91c5.47,1.46,21.72.56,29,.56,4.57,0,15.69,1.81,18.79-.91,0.91-.91,3.45-5.3,1.46-5.3h-3.77L191,71.59c0-10-9.87-8.58-19-8.58-5.65,0-10.77.35-16.07,0.35-4.22,0-9.86-.7-9.86,6.8h0Z" transform="translate(0.59 0.48)"/>
    <path class="cls-1" d="M5.68,77.1a17.85,17.85,0,0,0,4-3.66l12.24-11.5L46.18,85.3a6.84,6.84,0,0,1-1.81,2c-0.91.91-1.29,1.08-2.2,2a15.79,15.79,0,0,1-2,1.81L31.94,99a5.3,5.3,0,0,1-2.2,1.81c-1.81-1.29-5.47-5.65-7.29-7.29L14.78,86c-1.08-1.08-2-1.64-3.1-2.75C10,81.84,6.59,78.74,5.68,77.1ZM0,76.89C1.29,78.7,6.76,84,8.23,85.47c2.55,2.55,3.1,2.93,5.3,5.47,2,2.37,9.87,9.48,11.68,11.85,1.81,2.55,7.11,6.76,8.4,8.75L47.14,98.4c1.81-1.81,6.59-5.65,8-7.84L37.08,72.12c-3.66-4.39-9.48-9-12.59-13L21,55.84,17,59.5c-0.56.56-.91,0.73-1.46,1.29-2.93,2.37-9.87,9.87-13,13.14-0.56.56-.73,0.91-1.29,1.46A4.83,4.83,0,0,0,0,76.89H0Z" transform="translate(0.59 0.48)"/>
    <path class="cls-1" d="M86.74,24a5.36,5.36,0,0,0,2.2.91c2.55,0.91,3.45,1.81,3.45,6.38-4.92-.56-6.94-0.91-6.21-4C86.36,26.16,86.53,25.05,86.74,24ZM82.17,35.82C86,34,92.38,35.65,99.5,26.51c2.75-3.28,6.59-6,9.31-8.75l2.37-2A50.53,50.53,0,0,0,117,8.09c0.73-1.46.91-1.64,0.17-2.93-7.5-10.39-11.85-2.75-17.71,3.1C98,9.9,96.75,11.36,95.11,13,87.85,20.3,82.17,24.49,82.17,35.82Z" transform="translate(0.59 0.48)"/>
    <path class="cls-1" d="M90.57,157v1.29c0,4.74,15,9.69,15-.35v-1.46c0-3.45-2.93-7.5-6.21-7.5C94,149,90.57,153.76,90.57,157Z" transform="translate(0.59 0.48)"/>
  </g>
  <g>
    <path class="cls-1" d="M464.07,146.22q0,9-5.33,13.78t-15.35,4.77h-11v-36.4h12.16q9.25,0,14.38,4.71T464.07,146.22Zm-4.88.15q0-7.12-3.89-10.73T443.73,132H437v29.09h5.62q8.25,0,12.4-3.72t4.14-11h0Z" transform="translate(0.59 0.48)"/>
    <path class="cls-1" d="M471.85,130.09a2.62,2.62,0,0,1,.76-2.08,3,3,0,0,1,3.77,0,2.58,2.58,0,0,1,.79,2.07,2.61,2.61,0,0,1-.79,2.08,2.77,2.77,0,0,1-1.87.68,2.74,2.74,0,0,1-1.9-.68A2.66,2.66,0,0,1,471.85,130.09Zm4.88,34.69h-4.5v-27.3h4.5v27.29h0Z" transform="translate(0.59 0.48)"/>
    <path class="cls-1" d="M510.64,137.48v2.61l-5.51.6a8.54,8.54,0,0,1,1.36,2.28,8,8,0,0,1,.6,3.17,7.78,7.78,0,0,1-3,6.4q-3,2.39-8.2,2.39a14.73,14.73,0,0,1-2.5-.2q-2.88,1.4-2.88,3.51a1.76,1.76,0,0,0,1,1.66,7.91,7.91,0,0,0,3.45.54h5.26q4.83,0,7.42,1.87a6.28,6.28,0,0,1,2.59,5.43,7.6,7.6,0,0,1-4,6.91q-4,2.38-11.56,2.38-5.83,0-9-2a6.29,6.29,0,0,1-3.16-5.63,6,6,0,0,1,1.74-4.31,9.08,9.08,0,0,1,4.88-2.46,4.63,4.63,0,0,1-1.91-1.47,3.67,3.67,0,0,1-.77-2.32,4.15,4.15,0,0,1,.87-2.62,9,9,0,0,1,2.74-2.17,7.88,7.88,0,0,1-3.76-3,8.18,8.18,0,0,1-1.45-4.78,8.47,8.47,0,0,1,2.93-6.91q2.93-2.43,8.3-2.43a16.38,16.38,0,0,1,4.21.5h10.29Zm-23.72,31.88a3.65,3.65,0,0,0,2,3.36,12.08,12.08,0,0,0,5.83,1.14q5.67,0,8.4-1.56a4.72,4.72,0,0,0,2.73-4.22,3.24,3.24,0,0,0-1.49-3.08q-1.49-.86-5.62-0.86h-5.4a7.56,7.56,0,0,0-4.78,1.34A4.62,4.62,0,0,0,486.92,169.36Zm2.44-23.13a5.31,5.31,0,0,0,1.76,4.33A7.45,7.45,0,0,0,496,152q6.59,0,6.59-5.88,0-6.15-6.68-6.15a7,7,0,0,0-4.88,1.57,6,6,0,0,0-1.69,4.65h0Z" transform="translate(0.59 0.48)"/>
    <path class="cls-1" d="M516.37,130.09a2.61,2.61,0,0,1,.76-2.08,3,3,0,0,1,3.77,0,2.57,2.57,0,0,1,.79,2.07,2.61,2.61,0,0,1-.79,2.08,2.94,2.94,0,0,1-3.77,0A2.65,2.65,0,0,1,516.37,130.09Zm4.88,34.69h-4.5v-27.3h4.51v27.29h0Z" transform="translate(0.59 0.48)"/>
    <path class="cls-1" d="M540.41,161.86a17.41,17.41,0,0,0,4.07-.5v3.16a8.79,8.79,0,0,1-2.16.54,17.7,17.7,0,0,1-2.57.21q-8.63,0-8.63-8.34V140.69h-4.27v-2l4.26-1.72,1.9-5.83h2.6v6.33h8.63v3.21h-8.63v16.06a5.23,5.23,0,0,0,1.28,3.79A4.64,4.64,0,0,0,540.41,161.86Z" transform="translate(0.59 0.48)"/>
    <path class="cls-1" d="M568.72,164.77l-0.87-3.88h-0.22a12.32,12.32,0,0,1-4.44,3.47,14.62,14.62,0,0,1-5.52.91,10.51,10.51,0,0,1-6.93-2.09,7.31,7.31,0,0,1-2.51-6q0-8.27,14.41-8.67l5-.15v-1.69a6.54,6.54,0,0,0-1.51-4.74q-1.51-1.53-4.82-1.53a21,21,0,0,0-8.41,2.09l-1.38-3.16a22.27,22.27,0,0,1,4.82-1.72,22.64,22.64,0,0,1,5.25-.62q5.32,0,7.88,2.17t2.57,7v18.63H568.7Zm-10.18-2.91a9.65,9.65,0,0,0,6.61-2.12,7.48,7.48,0,0,0,2.4-5.93v-2.47l-4.5.17q-5.37.17-7.75,1.53a4.53,4.53,0,0,0-2.37,4.22,4.09,4.09,0,0,0,1.48,3.41A6.52,6.52,0,0,0,558.54,161.86Z" transform="translate(0.59 0.48)"/>
    <path class="cls-1" d="M585.85,164.77h-4.5V126h4.5v38.75h0Z" transform="translate(0.59 0.48)"/>
    <path class="cls-1" d="M623.68,165.27a13.88,13.88,0,0,1-5.31-1,9.86,9.86,0,0,1-4-3H614a33.67,33.67,0,0,1,.33,4.53V177h-4.52V137.48h3.66l0.62,3.74h0.22a10.26,10.26,0,0,1,4-3.24,13.25,13.25,0,0,1,5.29-1q5.92,0,9.13,3.71T636,151.1q0,6.72-3.27,10.45A11.37,11.37,0,0,1,623.68,165.27ZM623,140.49q-4.56,0-6.59,2.32t-2.09,7.37v0.92q0,5.75,2.09,8.23t6.7,2.48a7.17,7.17,0,0,0,6-2.86q2.18-2.86,2.18-7.89t-2.18-7.83a7.43,7.43,0,0,0-6.12-2.74h0Z" transform="translate(0.59 0.48)"/>
    <path class="cls-1" d="M657.46,137a19.16,19.16,0,0,1,3.55.3l-0.62,3.83a16.65,16.65,0,0,0-3.26-.37,8.23,8.23,0,0,0-6.17,2.69,9.33,9.33,0,0,0-2.56,6.7v14.64h-4.55V137.48h3.72l0.52,5.06h0.22a12.39,12.39,0,0,1,4-4.11A9.56,9.56,0,0,1,657.46,137Z" transform="translate(0.59 0.48)"/>
    <path class="cls-1" d="M692.25,151.1q0,6.67-3.66,10.42t-10.12,3.75a14.35,14.35,0,0,1-7.08-1.72,11.73,11.73,0,0,1-4.78-4.93,16,16,0,0,1-1.68-7.52q0-6.67,3.64-10.4t10.1-3.72q6.24,0,9.92,3.81T692.25,151.1Zm-22.66,0q0,5.23,2.28,8t6.7,2.74a8.29,8.29,0,0,0,6.72-2.73q2.3-2.73,2.29-8t-2.29-7.91q-2.29-2.7-6.77-2.7t-6.68,2.67q-2.26,2.67-2.25,7.93h0Z" transform="translate(0.59 0.48)"/>
    <path class="cls-1" d="M720.4,161.11h-0.25q-3.12,4.16-9.34,4.16-5.83,0-9.08-3.66t-3.24-10.41q0-6.75,3.26-10.48t9.06-3.74q6.05,0,9.28,4h0.35l-0.19-2-0.11-1.92V126h4.5v38.75H721Zm-9,.7q4.61,0,6.69-2.3t2.08-7.43v-0.87q0-5.8-2.1-8.28t-6.72-2.48a7.1,7.1,0,0,0-6.07,2.83q-2.1,2.83-2.1,8t2.09,7.89a7.32,7.32,0,0,0,6.12,2.64h0Z" transform="translate(0.59 0.48)"/>
    <path class="cls-1" d="M738.44,137.48v17.71a6.74,6.74,0,0,0,1.66,5q1.66,1.64,5.18,1.64,4.67,0,6.83-2.34t2.16-7.65V137.48h4.5v27.29h-3.72l-0.65-3.66h-0.24a8.77,8.77,0,0,1-3.84,3.09,13.9,13.9,0,0,1-5.6,1.07q-5.43,0-8.13-2.37t-2.7-7.57V137.48h4.55Z" transform="translate(0.59 0.48)"/>
    <path class="cls-1" d="M780.21,165.27q-6.46,0-10-3.65t-3.54-10.32q0-6.85,3.6-10.58T780.52,137a22.15,22.15,0,0,1,4.29.42,15.12,15.12,0,0,1,3.37,1l-1.38,3.51a22.69,22.69,0,0,0-3.26-.91,15.81,15.81,0,0,0-3.12-.36q-9.07,0-9.06,10.61,0,5,2.21,7.72t6.55,2.69a21.6,21.6,0,0,0,7.63-1.47v3.66A17.51,17.51,0,0,1,780.21,165.27Z" transform="translate(0.59 0.48)"/>
    <path class="cls-1" d="M804.39,161.86a16.09,16.09,0,0,0,2.31-.16,16.28,16.28,0,0,0,1.76-.34v3.16a8.8,8.8,0,0,1-2.16.54,17.71,17.71,0,0,1-2.56.21q-8.63,0-8.63-8.34V140.69h-4.26v-2l4.26-1.72,1.9-5.83h2.61v6.33h8.63v3.21h-8.63v16.06a5.23,5.23,0,0,0,1.23,3.85A4.64,4.64,0,0,0,804.39,161.86Z" transform="translate(0.59 0.48)"/>
    <path class="cls-1" d="M814,130.09a2.61,2.61,0,0,1,.76-2.08,3,3,0,0,1,3.77,0,2.57,2.57,0,0,1,.79,2.07,2.61,2.61,0,0,1-.79,2.08,2.76,2.76,0,0,1-1.87.68,2.73,2.73,0,0,1-1.9-.68A2.66,2.66,0,0,1,814,130.09Zm4.88,34.69h-4.5v-27.3h4.5v27.29h0Z" transform="translate(0.59 0.48)"/>
    <path class="cls-1" d="M854.14,151.1q0,6.67-3.66,10.42t-10.12,3.75a14.35,14.35,0,0,1-7.08-1.72,11.73,11.73,0,0,1-4.78-4.93,16,16,0,0,1-1.68-7.52q0-6.67,3.64-10.4t10.1-3.72q6.24,0,9.92,3.81T854.14,151.1Zm-22.66,0q0,5.23,2.28,8t6.7,2.74a8.29,8.29,0,0,0,6.72-2.73q2.3-2.73,2.29-8t-2.29-7.91q-2.29-2.7-6.77-2.7t-6.68,2.67Q831.47,145.84,831.48,151.1Z" transform="translate(0.59 0.48)"/>
    <path class="cls-1" d="M882.39,164.77V147.12a6.74,6.74,0,0,0-1.66-5q-1.66-1.64-5.18-1.64-4.67,0-6.84,2.32t-2.17,7.64v14.32H862V137.48h3.66l0.73,3.74h0.22a9,9,0,0,1,3.88-3.12,13.58,13.58,0,0,1,5.56-1.11q5.37,0,8.09,2.38t2.71,7.61v17.81h-4.51v0Z" transform="translate(0.59 0.48)"/>
  </g>
</svg>
